<?xml version="1.0" standalone="no"?>
<!DOCTYPE svg PUBLIC "-//W3C//DTD SVG 20010904//EN"
 "http://www.w3.org/TR/2001/REC-SVG-20010904/DTD/svg10.dtd">
<svg version="1.0" xmlns="http://www.w3.org/2000/svg"
 width="1600.000000pt" height="1368.000000pt" viewBox="0 0 1600.000000 1368.000000"
 preserveAspectRatio="xMidYMid meet">
<metadata>
Created by potrace 1.16, written by Peter Selinger 2001-2019
</metadata>
<g transform="translate(0.000000,1368.000000) scale(0.100000,-0.100000)"
fill="#000000" stroke="none">
<path d="M3094 11895 c-10 -8 -37 -15 -59 -15 -28 0 -52 -10 -80 -30 -22 -16
-51 -35 -65 -42 -14 -6 -35 -20 -46 -31 -12 -10 -37 -26 -55 -35 -19 -9 -43
-34 -54 -54 -11 -20 -26 -39 -35 -41 -8 -2 -32 -38 -53 -80 -21 -42 -43 -79
-48 -82 -12 -8 -49 -85 -49 -102 0 -8 -11 -34 -25 -59 -14 -25 -25 -53 -25
-62 0 -10 -13 -44 -30 -75 -17 -33 -30 -74 -30 -94 0 -39 -14 -91 -36 -136 -8
-16 -14 -50 -14 -77 0 -27 -4 -52 -10 -55 -5 -3 -10 -34 -10 -69 0 -39 -5 -69
-15 -82 -11 -14 -14 -49 -15 -136 0 -67 -4 -119 -10 -123 -14 -8 -14 -612 0
-620 6 -4 10 -56 10 -124 0 -80 4 -121 13 -129 6 -7 15 -52 20 -100 4 -48 10
-116 13 -152 3 -35 12 -73 20 -84 8 -11 14 -44 14 -73 0 -28 5 -55 10 -58 6
-3 10 -28 10 -54 0 -26 7 -56 15 -67 8 -10 15 -29 15 -40 0 -12 7 -35 15 -50
8 -16 15 -43 15 -61 0 -17 5 -35 10 -38 6 -3 10 -23 10 -44 0 -20 7 -46 15
-57 20 -27 21 -192 0 -231 -8 -15 -17 -40 -19 -54 -3 -14 -17 -41 -30 -60 -14
-19 -43 -71 -66 -115 -22 -45 -49 -89 -60 -99 -11 -10 -20 -28 -20 -40 0 -12
-18 -56 -40 -99 -22 -42 -40 -84 -40 -93 0 -8 -11 -28 -25 -45 -14 -16 -25
-39 -25 -51 0 -12 -11 -42 -25 -66 -14 -23 -25 -53 -25 -65 0 -13 -11 -33 -25
-46 -14 -13 -25 -35 -25 -49 0 -14 -7 -35 -15 -45 -8 -11 -15 -34 -15 -52 0
-18 -11 -54 -25 -80 -14 -26 -25 -62 -25 -80 0 -18 -5 -36 -10 -39 -5 -3 -10
-18 -10 -33 0 -15 -7 -36 -15 -46 -9 -11 -15 -41 -15 -68 0 -34 -7 -60 -25
-88 -20 -31 -25 -53 -25 -103 0 -36 -5 -68 -12 -75 -13 -13 -25 -85 -35 -202
-2 -35 -11 -73 -19 -84 -8 -11 -14 -37 -14 -58 0 -20 -4 -40 -10 -43 -5 -3
-10 -46 -10 -94 0 -61 -4 -93 -15 -107 -22 -29 -22 -801 0 -830 10 -14 14 -47
15 -121 0 -57 4 -105 10 -108 6 -3 10 -30 10 -58 0 -30 7 -60 15 -71 10 -13
15 -43 15 -82 0 -35 5 -66 10 -69 5 -3 10 -30 10 -59 0 -30 6 -60 15 -72 8
-10 15 -40 15 -65 0 -31 8 -62 25 -90 14 -24 25 -60 25 -79 0 -19 7 -44 15
-54 8 -11 15 -30 15 -42 0 -13 5 -26 10 -29 6 -3 10 -17 10 -30 0 -13 6 -36
14 -52 8 -15 20 -48 26 -73 7 -25 30 -81 51 -125 21 -44 39 -86 39 -94 0 -21
60 -138 81 -157 10 -9 19 -27 19 -39 0 -12 10 -35 22 -51 13 -16 32 -47 43
-69 11 -22 28 -52 38 -65 42 -59 67 -97 81 -125 9 -16 32 -50 51 -75 19 -25
42 -58 49 -75 8 -16 35 -50 60 -75 25 -24 46 -48 46 -54 0 -5 29 -40 65 -77
36 -37 65 -73 65 -81 0 -17 361 -378 379 -378 7 0 43 -29 80 -65 37 -36 72
-65 77 -65 6 0 30 -21 54 -46 25 -26 59 -53 75 -60 17 -8 58 -35 93 -59 35
-25 67 -45 71 -45 4 0 18 -11 31 -25 13 -14 29 -25 36 -25 7 0 25 -10 41 -23
15 -13 49 -33 74 -46 26 -12 54 -30 64 -41 10 -11 22 -20 28 -20 5 0 22 -11
39 -25 16 -14 39 -25 50 -25 12 0 29 -7 38 -15 27 -24 408 -215 429 -215 11 0
33 -11 49 -25 17 -14 43 -25 59 -25 17 0 51 -11 77 -25 26 -14 54 -25 61 -25
8 0 50 -18 92 -40 46 -24 92 -40 113 -40 19 0 44 -7 54 -15 11 -8 30 -15 42
-15 13 0 26 -5 29 -10 3 -6 18 -10 33 -10 15 0 36 -7 46 -15 11 -8 30 -15 42
-15 13 0 26 -4 29 -10 3 -5 30 -10 59 -10 44 0 60 -5 91 -30 33 -26 46 -30
101 -30 34 0 66 -4 69 -10 3 -5 16 -10 28 -10 13 0 31 -6 42 -14 11 -7 39 -16
63 -20 23 -3 61 -9 85 -12 23 -4 51 -13 62 -20 11 -8 36 -14 57 -14 20 0 40
-4 43 -10 3 -5 34 -10 69 -10 39 0 69 -5 82 -15 10 -8 41 -15 69 -15 28 0 59
-7 69 -15 14 -11 46 -15 107 -15 48 0 91 -4 94 -10 3 -5 23 -10 44 -10 20 0
46 -7 57 -15 15 -11 55 -14 186 -15 100 0 169 -4 173 -10 4 -6 65 -10 148 -10
109 -1 147 -4 161 -15 30 -22 1671 -22 1700 0 16 12 54 15 172 15 91 0 155 4
159 10 4 6 59 10 134 10 96 0 132 4 147 15 10 8 31 15 46 15 15 0 30 4 33 10
3 5 46 10 94 10 61 0 93 4 107 15 12 9 43 15 84 15 41 0 72 6 84 15 11 8 41
15 67 15 26 0 51 5 54 10 3 6 25 10 48 10 23 0 51 7 61 15 11 8 37 15 57 15
21 0 41 5 44 10 3 6 23 10 43 10 20 0 46 7 56 15 11 8 37 15 57 15 21 0 41 5
44 10 3 6 26 10 51 10 30 0 65 10 106 30 39 19 75 30 103 30 24 0 47 5 50 10
3 6 18 10 33 10 15 0 36 7 46 15 11 8 32 15 47 15 15 0 31 5 34 10 3 6 16 10
29 10 12 0 31 7 42 15 10 8 29 15 41 15 12 0 38 9 58 21 19 12 50 25 68 29 56
14 99 32 200 82 54 26 106 48 114 48 8 0 36 11 62 24 25 13 78 39 116 58 151
75 235 120 240 128 3 6 39 26 79 45 41 19 79 42 86 50 6 8 33 24 58 36 26 12
61 32 77 44 17 12 51 31 76 43 25 12 58 35 74 52 16 16 34 30 40 30 6 0 22 11
35 25 13 14 30 25 37 25 7 0 33 18 57 40 24 22 47 40 51 40 5 0 46 36 91 80
45 44 88 80 96 80 18 0 438 422 438 440 0 7 28 44 63 81 95 105 134 152 141
175 4 12 15 29 26 39 11 10 20 23 20 30 0 6 11 22 25 35 14 13 25 29 25 36 0
7 11 25 24 41 13 16 45 72 70 124 25 53 55 104 66 114 11 10 20 30 20 45 0 15
10 36 25 50 14 13 25 31 25 40 0 27 37 104 60 125 11 10 20 30 20 44 0 14 7
35 15 45 8 11 15 30 15 42 0 13 5 26 10 29 5 3 10 16 10 29 0 13 11 44 25 71
14 26 27 64 29 84 2 20 15 57 30 83 18 33 26 62 26 97 0 27 5 53 10 56 6 3 10
23 10 44 0 20 5 42 12 49 7 7 16 38 20 70 11 87 23 145 36 169 7 12 12 39 12
61 0 22 7 56 16 77 11 28 15 69 13 169 -1 83 2 140 10 153 16 30 16 654 0 670
-8 8 -11 55 -10 140 1 98 -2 135 -14 157 -8 15 -15 49 -15 75 0 25 -7 55 -15
65 -10 13 -15 43 -15 82 0 35 -4 66 -10 69 -5 3 -10 30 -10 59 0 30 -6 60 -15
72 -8 10 -15 36 -15 56 0 20 -4 40 -10 43 -5 3 -10 29 -10 56 0 35 -8 64 -26
97 -15 26 -28 65 -30 86 -2 22 -8 44 -14 50 -5 5 -10 21 -10 36 0 14 -7 34
-15 44 -8 11 -15 30 -15 42 0 13 -5 26 -10 29 -5 3 -10 18 -10 33 0 15 -7 36
-15 46 -8 11 -15 28 -15 37 0 10 -11 39 -25 65 -14 26 -25 57 -25 70 0 13 -4
25 -9 29 -5 3 -13 20 -17 37 -3 18 -10 39 -14 48 -25 52 -46 89 -67 113 -13
16 -23 38 -23 50 0 12 -11 42 -25 66 -14 23 -25 53 -25 65 0 13 -11 33 -25 46
-14 13 -25 31 -25 39 0 9 -7 25 -15 35 -8 11 -15 29 -15 41 0 12 -11 32 -25
45 -14 14 -25 35 -25 50 0 15 -11 36 -25 50 -19 17 -25 34 -25 64 0 23 -7 50
-15 60 -19 25 -19 53 0 90 8 15 15 48 15 71 0 27 9 59 25 86 16 29 25 60 25
89 0 25 6 54 14 65 14 21 24 71 33 175 2 35 11 73 19 84 8 11 14 37 14 58 0
20 5 40 10 43 6 3 10 39 10 78 1 43 6 82 15 97 11 19 14 66 15 190 0 129 4
169 15 184 22 29 22 503 0 532 -11 15 -14 53 -15 165 0 110 -4 154 -15 175 -9
18 -15 57 -15 101 0 39 -5 75 -10 78 -6 3 -10 23 -10 44 0 20 -7 46 -15 57 -8
11 -14 41 -15 73 0 56 -11 105 -36 154 -8 16 -14 42 -14 59 0 18 -10 42 -25
60 -14 16 -25 37 -25 47 0 23 -65 155 -85 171 -8 7 -15 18 -15 25 0 6 -9 20
-20 30 -11 10 -31 42 -45 72 -15 31 -32 53 -41 53 -9 0 -18 9 -21 20 -3 12
-26 30 -57 45 -29 14 -63 36 -77 51 -33 35 -91 64 -131 64 -18 0 -42 7 -52 15
-28 21 -339 21 -376 0 -14 -8 -51 -14 -82 -15 -31 0 -69 -6 -85 -14 -15 -8
-48 -20 -73 -26 -25 -6 -58 -18 -73 -26 -16 -8 -37 -14 -47 -14 -11 0 -39 -11
-64 -25 -25 -14 -60 -25 -79 -25 -23 0 -41 -8 -57 -25 -13 -14 -33 -25 -44
-25 -26 0 -300 -137 -322 -161 -9 -10 -29 -19 -44 -19 -15 0 -36 -10 -50 -25
-14 -14 -35 -25 -50 -25 -15 0 -36 -11 -50 -25 -13 -14 -29 -25 -36 -25 -7 0
-26 -11 -42 -25 -17 -14 -50 -34 -75 -45 -24 -11 -50 -27 -57 -35 -8 -9 -27
-23 -44 -30 -17 -8 -51 -31 -76 -50 -25 -19 -56 -40 -69 -45 -29 -13 -68 -42
-134 -101 -29 -25 -73 -56 -99 -69 -26 -13 -50 -32 -54 -42 -3 -10 -10 -18
-15 -18 -5 0 -26 -15 -46 -34 -21 -18 -51 -40 -68 -49 -16 -8 -41 -27 -55 -42
-33 -36 -103 -65 -156 -65 -23 0 -46 -4 -49 -10 -3 -5 -26 -10 -50 -10 -24 0
-47 5 -50 10 -3 6 -28 10 -54 10 -26 0 -56 7 -67 15 -10 8 -30 15 -44 15 -14
0 -34 7 -44 15 -12 9 -42 15 -72 15 -29 0 -56 5 -59 10 -3 6 -27 10 -53 10
-26 0 -56 6 -67 14 -22 15 -69 23 -192 34 -45 4 -88 13 -95 20 -6 6 -31 12
-54 12 -24 0 -46 5 -49 10 -3 6 -46 10 -94 10 -61 0 -93 4 -107 15 -10 8 -33
15 -50 15 -18 0 -45 7 -60 15 -23 12 -70 15 -216 15 -114 0 -189 4 -193 10 -4
6 -86 10 -213 10 -166 1 -211 4 -226 15 -29 22 -432 21 -460 0 -16 -12 -57
-15 -197 -15 -108 0 -180 -4 -184 -10 -4 -6 -64 -10 -149 -10 -109 0 -147 -3
-162 -15 -10 -8 -41 -15 -69 -15 -28 0 -59 -7 -69 -15 -14 -11 -46 -15 -107
-15 -48 0 -91 -4 -94 -10 -3 -5 -30 -10 -58 -10 -30 0 -60 -7 -71 -15 -13 -10
-43 -15 -82 -15 -35 0 -66 -4 -69 -10 -3 -5 -34 -10 -69 -10 -39 0 -69 -5 -82
-15 -11 -8 -41 -15 -71 -15 -28 0 -55 -4 -58 -10 -3 -5 -23 -10 -44 -10 -20 0
-46 -7 -57 -15 -10 -8 -34 -15 -52 -15 -18 0 -43 -5 -55 -12 -44 -24 -185 -44
-200 -29 -6 6 -20 11 -30 11 -39 0 -202 89 -247 135 -24 25 -49 45 -55 45 -15
0 -73 43 -146 108 -32 28 -64 52 -70 52 -7 0 -31 18 -55 40 -24 22 -50 40 -57
40 -8 0 -22 9 -33 21 -10 11 -41 31 -69 45 -27 13 -70 40 -95 59 -25 19 -82
53 -126 75 -45 22 -89 49 -99 60 -10 11 -24 20 -31 20 -7 0 -26 11 -42 25 -17
14 -41 25 -54 25 -14 0 -33 9 -43 20 -26 29 -296 160 -329 160 -15 0 -41 11
-58 25 -18 16 -42 25 -62 25 -18 0 -54 11 -80 25 -26 14 -60 25 -76 25 -15 0
-41 6 -57 14 -15 8 -55 22 -88 32 -33 9 -64 20 -69 25 -6 5 -37 9 -70 9 -34 1
-72 7 -86 15 -36 21 -318 21 -346 0z m1876 -5610 c14 -8 45 -14 69 -15 31 0
51 -7 73 -25 16 -14 39 -25 51 -25 23 0 187 -155 187 -176 0 -6 7 -17 15 -24
20 -16 65 -106 65 -129 0 -10 11 -28 25 -41 21 -19 25 -33 25 -76 0 -29 5 -56
10 -59 6 -4 10 -55 10 -120 0 -65 -4 -116 -10 -120 -5 -3 -10 -35 -10 -70 0
-49 -6 -73 -25 -106 -14 -24 -25 -52 -25 -61 0 -24 -36 -92 -60 -113 -11 -10
-20 -25 -20 -33 0 -17 -129 -152 -146 -152 -7 0 -26 -11 -42 -25 -17 -14 -43
-25 -58 -25 -16 0 -42 -7 -58 -15 -15 -8 -37 -15 -47 -15 -11 0 -31 -7 -44
-16 -18 -12 -41 -15 -87 -12 -59 4 -88 12 -165 45 -17 7 -43 13 -58 13 -15 0
-40 11 -57 25 -16 14 -35 25 -41 25 -7 0 -52 39 -99 88 -81 80 -148 180 -148
219 0 8 -13 41 -30 75 -30 60 -30 61 -30 235 l0 174 30 54 c17 31 30 69 30 88
0 19 7 40 16 48 9 7 25 33 36 58 36 79 169 205 265 251 46 22 95 40 111 40 15
0 37 7 48 15 26 19 160 20 194 0z m6094 0 c11 -8 41 -15 66 -15 49 0 144 -41
185 -80 12 -11 25 -20 30 -20 14 0 75 -63 75 -77 0 -8 11 -18 25 -23 14 -5 25
-15 25 -22 0 -6 9 -21 20 -33 42 -44 110 -195 110 -244 0 -25 7 -55 15 -65 21
-28 21 -253 0 -280 -10 -13 -15 -43 -15 -81 0 -53 -4 -65 -25 -85 -14 -13 -25
-33 -25 -45 0 -40 -41 -101 -127 -187 -48 -49 -93 -88 -100 -88 -6 0 -25 -11
-41 -25 -21 -18 -42 -25 -70 -25 -24 0 -64 -12 -100 -30 -69 -34 -163 -42
-198 -15 -10 8 -30 15 -44 15 -14 0 -34 7 -44 15 -11 8 -29 15 -39 15 -40 0
-144 63 -209 128 -65 64 -158 219 -158 264 0 9 -6 29 -14 45 -30 60 -36 105
-36 257 0 149 1 161 25 208 14 27 25 58 25 68 0 10 5 22 10 25 6 3 10 18 10
32 0 15 9 37 21 49 11 12 28 35 37 51 37 66 65 103 76 103 6 0 34 23 61 50 34
35 57 50 75 50 15 0 37 11 50 25 17 18 34 25 60 25 20 0 45 7 56 15 13 10 44
14 94 14 50 0 81 -4 94 -14z"/>
</g>
</svg>
